<?xml version="1.0" encoding="UTF-8" standalone="no"?>
<svg
   width="349.00156"
   height="143.62204"
   viewBox="0 0 349.00156 143.62204"
   version="1.1"
   id="svg8"
   sodipodi:docname="qriine_heart_lowercase.svg"
   inkscape:version="1.4.4 (dcaf3e7, 2026-05-05)"
   xmlns:inkscape="http://www.inkscape.org/namespaces/inkscape"
   xmlns:sodipodi="http://sodipodi.sourceforge.net/DTD/sodipodi-0.dtd"
   xmlns="http://www.w3.org/2000/svg"
   xmlns:svg="http://www.w3.org/2000/svg">
  <defs
     id="defs8" />
  <sodipodi:namedview
     id="namedview8"
     pagecolor="#ffffff"
     bordercolor="#666666"
     borderopacity="1.0"
     inkscape:showpageshadow="2"
     inkscape:pageopacity="0.0"
     inkscape:pagecheckerboard="true"
     inkscape:deskcolor="#d1d1d1"
     inkscape:zoom="1.7081048"
     inkscape:cx="127.33411"
     inkscape:cy="86.353015"
     inkscape:window-width="1920"
     inkscape:window-height="991"
     inkscape:window-x="-9"
     inkscape:window-y="-9"
     inkscape:window-maximized="1"
     inkscape:current-layer="svg8" />
  <!-- 案B 小文字Qriine + iのドットがハート
       編集可能ベクター。text-qriine=文字（アウトライン化済）, heart-1/heart-2=ハート, sticker-bg=白背景
       色: NAVY=#1a2a6c / RED=#d93025 -->
  <rect
     id="sticker-bg"
     x="0"
     y="0"
     width="349.00156"
     height="143.62204"
     rx="17.927221"
     fill="#ffffff"
     ry="19.683554"
     style="stroke-width:0.999994" />
  <g
     id="text-qriine"
     transform="translate(7.7214278e-4,-16.188978)">
    <path
       d="M 1507,711 Q 1507,429 1368.5,241.5 1230,54 983,4 q 34,-99 95.5,-143 61.5,-44 172.5,-44 59,0 119,10 l -2,-202 q -126,-28 -242,-28 -163,0 -270,91 Q 749,-221 684,-10 399,17 241.5,207.5 84,398 84,711 q 0,339 188,529 188,190 523,190 335,0 523.5,-192 Q 1507,1046 1507,711 Z m -301,0 q 0,228 -108,357.5 Q 990,1198 795,1198 597,1198 489,1069.5 381,941 381,711 381,479 491,345 601,211 793,211 991,211 1098.5,341 1206,471 1206,711 Z"
       transform="matrix(0.0488,0,0,-0.0488,30,120)"
       fill="#1a2a6c"
       id="path1" />
    <path
       d="m 143,0 v 828 q 0,89 -2.5,148.5 Q 138,1036 135,1082 h 268 q 3,-18 8,-109.5 5,-91.5 5,-121.5 h 4 q 41,114 73,160.5 32,46.5 76,69 44,22.5 110,22.5 54,0 87,-15 V 853 Q 698,868 646,868 541,868 482.5,783 424,698 424,531 V 0 Z"
       transform="matrix(0.0488,0,0,-0.0488,107.78,120)"
       fill="#1a2a6c"
       id="path2" />
    <path
       d="M 145,0 V 1082 H 426 V 0 Z"
       transform="matrix(0.0488,0,0,-0.0488,146.7,120)"
       fill="#1a2a6c"
       id="path3" />
    <path
       d="M 145,0 V 1082 H 426 V 0 Z"
       transform="matrix(0.0488,0,0,-0.0488,174.48,120)"
       fill="#1a2a6c"
       id="path4" />
    <path
       d="M 844,0 V 607 Q 844,892 651,892 549,892 486.5,804.5 424,717 424,580 V 0 H 143 v 840 q 0,87 -2.5,142.5 -2.5,55.5 -5.5,99.5 h 268 q 3,-19 8,-101.5 5,-82.5 5,-113.5 h 4 q 57,124 143,180 86,56 205,56 172,0 264,-106 92,-106 92,-310 V 0 Z"
       transform="matrix(0.0488,0,0,-0.0488,202.27,120)"
       fill="#1a2a6c"
       id="path5" />
    <path
       d="M 586,-20 Q 342,-20 211,124.5 80,269 80,546 q 0,268 133,412 133,144 377,144 233,0 356,-154.5 Q 1069,793 1069,495 v -8 H 375 Q 375,329 433.5,248.5 492,168 600,168 q 149,0 188,129 l 265,-23 Q 938,-20 586,-20 Z m 0,945 Q 487,925 433.5,856 380,787 377,663 H 797 Q 789,794 734,859.5 679,925 586,925 Z"
       transform="matrix(0.0488,0,0,-0.0488,263.35,120)"
       fill="#1a2a6c"
       id="path6" />
  </g>
  <g
     id="heart-2"
     transform="matrix(0.05167323,0,0,0.05167323,174.77082,26.65582)"
     style="stroke-width:1.285">
    <path
       d="m 47.6,300.4 180.7,168.7 c 7.5,7 17.4,10.9 27.7,10.9 10.3,0 20.2,-3.9 27.7,-10.9 L 464.4,300.4 c 30.4,-28.3 47.6,-68 47.6,-109.5 v -5.8 C 512,115.2 461.5,55.6 392.6,44.1 347,36.5 300.6,51.4 268,84 L 256,96 244,84 C 211.4,51.4 165,36.5 119.4,44.1 50.5,55.6 0,115.2 0,185.1 v 5.8 c 0,41.5 17.2,81.2 47.6,109.5 z"
       fill="#d93025"
       id="path8"
       style="stroke-width:1.285" />
  </g>
  <g
     id="heart-2-9"
     transform="matrix(0.05167323,0,0,0.05167323,147.00077,26.632948)"
     style="stroke-width:1.285">
    <path
       d="m 47.6,300.4 180.7,168.7 c 7.5,7 17.4,10.9 27.7,10.9 10.3,0 20.2,-3.9 27.7,-10.9 L 464.4,300.4 c 30.4,-28.3 47.6,-68 47.6,-109.5 v -5.8 C 512,115.2 461.5,55.6 392.6,44.1 347,36.5 300.6,51.4 268,84 L 256,96 244,84 C 211.4,51.4 165,36.5 119.4,44.1 50.5,55.6 0,115.2 0,185.1 v 5.8 c 0,41.5 17.2,81.2 47.6,109.5 z"
       fill="#d93025"
       id="path8-4"
       style="stroke-width:1.285" />
  </g>
</svg>
